<svg width="144" height="144" viewBox="0 0 144 144" fill="none" xmlns="http://www.w3.org/2000/svg">
<path fill-rule="evenodd" clip-rule="evenodd" d="M40.2317 84.7734C40.2317 89.971 43.6164 92.6179 50.411 92.6179V92.642H59.6134C65.1203 90.5448 72.5104 86.4137 79.6593 82.4173L79.6595 82.4172C85.613 79.0891 91.3992 75.8545 95.7911 73.9661C99.6835 72.4098 103.576 70.7934 107.468 69.171H124.549L121.13 79.4233H94.0419L89.176 92.0585L142 84.4723L83.2891 107.586L77.3169 123.339H53.5988L55.3969 118.567L41.3392 124.102H12.8859H12.4872C21.8554 121.127 31.0741 117.786 40.243 114.25C48.4437 111.022 56.6264 107.74 64.6879 104.194L89.1679 92.0629C89.1705 92.0614 89.1731 92.06 89.1757 92.0586L59.6204 92.8091C53.4035 96.2362 47.649 99.3542 42.0722 102.376L42.0664 102.379L42.0648 102.38C30.1133 108.855 18.9772 114.889 5.85426 122.576C3.9851 121.325 3 119.4 3 116.777C3 115.839 3.10104 114.804 3.35362 113.769L36 20H62.1489L40.8379 82.1265C40.4842 83.2815 40.2317 84.1959 40.2317 84.7734ZM115.809 56.7635C119.37 55.0182 122.926 53.2205 126.481 51.4151L112.157 52.6338L106.98 61.2092C110.679 59.3802 113.774 57.826 115.809 56.7635ZM91.8294 68.2231C83.4925 72.2575 74.9005 76.3631 68.9517 79.1526L77.5851 55.3139L104.784 53.0441L97.6761 64.8161L97.701 64.814C95.7414 65.9466 93.7842 67.083 91.8294 68.2231Z" fill="#FB8500"/>
</svg>
